<svg xmlns="http://www.w3.org/2000/svg" viewBox="0 0 32 32">
  <!-- Hexagone subtil -->
  <polygon points="16,3 23,7 23,18 16,22 9,18 9,7"
    fill="none" stroke="#D4AF37" stroke-width="0.4" opacity="0.22"/>
  <!-- Grand losange extérieur -->
  <path d="M16 2L30 16L16 30L2 16Z"
    fill="none" stroke="#D4AF37" stroke-width="1.6" stroke-linejoin="round"/>
  <!-- Losange intérieur -->
  <path d="M16 8L24 16L16 24L8 16Z"
    fill="none" stroke="#D4AF37" stroke-width="1.1" stroke-linejoin="round" opacity="0.9"/>
  <!-- Micro-losanges aux 4 points cardinaux -->
  <path d="M16 2  L17.4 3.4 L16 4.8 L14.6 3.4Z" fill="#D4AF37"/>
  <path d="M30 16 L28.6 17.4 L27.2 16 L28.6 14.6Z" fill="#D4AF37"/>
  <path d="M16 30 L17.4 28.6 L16 27.2 L14.6 28.6Z" fill="#D4AF37"/>
  <path d="M2 16  L3.4 17.4 L4.8 16 L3.4 14.6Z" fill="#D4AF37"/>
  <!-- Anneau émeraude + point central -->
  <circle cx="16" cy="16" r="4"   fill="none" stroke="#12C068" stroke-width="1.3"/>
  <circle cx="16" cy="16" r="1.8" fill="#12C068"/>
</svg>
